<svg width="0" height="0">
	<symbol id="more" viewBox="0 0 24 24" fill="none" xmlns="http://www.w3.org/2000/svg">
		<path d="M11 4C11 4.55228 11.4477 5 12 5C12.5523 5 13 4.55228 13 4C13 3.44772 12.5523 3 12 3C11.4477 3 11 3.44772 11 4Z" fill="currentColor"/>
		<path d="M11 12C11 12.5523 11.4477 13 12 13C12.5523 13 13 12.5523 13 12C13 11.4477 12.5523 11 12 11C11.4477 11 11 11.4477 11 12Z" fill="currentColor"/>
		<path d="M11 20C11 20.5523 11.4477 21 12 21C12.5523 21 13 20.5523 13 20C13 19.4477 12.5523 19 12 19C11.4477 19 11 19.4477 11 20Z" fill="currentColor"/>
		<path fill-rule="evenodd" clip-rule="evenodd" d="M10.25 4C10.25 3.0335 11.0335 2.25 12 2.25C12.9665 2.25 13.75 3.0335 13.75 4C13.75 4.9665 12.9665 5.75 12 5.75C11.0335 5.75 10.25 4.9665 10.25 4ZM12 3.75C11.8619 3.75 11.75 3.86193 11.75 4C11.75 4.13807 11.8619 4.25 12 4.25C12.1381 4.25 12.25 4.13807 12.25 4C12.25 3.86193 12.1381 3.75 12 3.75ZM10.25 12C10.25 11.0335 11.0335 10.25 12 10.25C12.9665 10.25 13.75 11.0335 13.75 12C13.75 12.9665 12.9665 13.75 12 13.75C11.0335 13.75 10.25 12.9665 10.25 12ZM12 11.75C11.8619 11.75 11.75 11.8619 11.75 12C11.75 12.1381 11.8619 12.25 12 12.25C12.1381 12.25 12.25 12.1381 12.25 12C12.25 11.8619 12.1381 11.75 12 11.75ZM10.25 20C10.25 19.0335 11.0335 18.25 12 18.25C12.9665 18.25 13.75 19.0335 13.75 20C13.75 20.9665 12.9665 21.75 12 21.75C11.0335 21.75 10.25 20.9665 10.25 20ZM12 19.75C11.8619 19.75 11.75 19.8619 11.75 20C11.75 20.1381 11.8619 20.25 12 20.25C12.1381 20.25 12.25 20.1381 12.25 20C12.25 19.8619 12.1381 19.75 12 19.75Z" fill="currentColor"/>
	</symbol>
	<symbol id="power" viewBox="0 0 20 20" fill="none" xmlns="http://www.w3.org/2000/svg">
		<path d="M10.0007 17.5007C13.6765 17.5007 16.6673 14.5099 16.6673 10.834C16.6673 8.04237 14.9406 5.64987 12.5007 4.6582V6.5107C13.2597 6.94897 13.8903 7.57909 14.3291 8.33789C14.7679 9.09669 14.9995 9.95751 15.0007 10.834C15.0007 13.5915 12.7582 15.834 10.0007 15.834C7.24315 15.834 5.00065 13.5915 5.00065 10.834C5.00176 9.95749 5.23332 9.09664 5.67211 8.33782C6.1109 7.57901 6.74149 6.9489 7.50065 6.5107V4.6582C5.06065 5.64987 3.33398 8.04237 3.33398 10.834C3.33398 14.5099 6.32482 17.5007 10.0007 17.5007Z" fill="currentColor" />
		<path d="M9.16602 1.66602H10.8327V9.99935H9.16602V1.66602Z" fill="currentColor" />
	</symbol>
	<symbol id="restart" viewBox="0 0 20 20" fill="none" xmlns="http://www.w3.org/2000/svg">
		<path fill-rule="evenodd" clip-rule="evenodd" d="M5.32314 5.3701C5.24793 5.44127 5.12905 5.4418 5.05583 5.36858L3.81425 4.127C3.69711 4.00986 3.49673 4.09106 3.49419 4.25669L3.43366 8.19049C3.43204 8.29629 3.51823 8.38248 3.62403 8.38085L7.55783 8.32033C7.72346 8.31779 7.80466 8.11741 7.68752 8.00027L6.44594 6.75869C6.37272 6.68547 6.37268 6.56628 6.44855 6.4958C8.3701 4.71077 11.3554 4.70758 13.1685 6.52064C13.6948 7.04701 14.0688 7.72576 14.2933 8.36964C14.3205 8.44766 14.3939 8.50073 14.4765 8.49946L15.8065 8.47899C15.9299 8.4771 16.0179 8.35857 15.9813 8.24072C15.6554 7.19014 15.1664 6.19841 14.3286 5.36055C11.8968 2.92877 7.88337 2.94752 5.32314 5.3701ZM12.9304 13.2432C13.0037 13.3164 13.0037 13.4356 12.9278 13.5061C11.0063 15.2911 8.02095 15.2943 6.20789 13.4812C5.68153 12.9549 5.30756 12.2761 5.08309 11.6322C5.05589 11.5542 4.9825 11.5011 4.89988 11.5024L3.56989 11.5229C3.44651 11.5248 3.35852 11.6433 3.39507 11.7611C3.72097 12.8117 4.20994 13.8035 5.0478 14.6413C7.47957 17.0731 11.493 17.0544 14.0532 14.6318C14.1284 14.5606 14.2473 14.5601 14.3205 14.6333L15.5621 15.8749C15.6793 15.992 15.8796 15.9108 15.8822 15.7452L15.9427 11.8114C15.9443 11.7056 15.8581 11.6194 15.7523 11.621L11.8185 11.6815C11.6529 11.6841 11.5717 11.8845 11.6888 12.0016L12.9304 13.2432Z" fill="currentColor" />
	</symbol>
	<symbol id="remove" viewBox="0 0 20 20" fill="none" xmlns="http://www.w3.org/2000/svg">
		<path d="M3.53906 6.23047H16.462" stroke="currentColor" stroke-width="1.5" stroke-linecap="round" stroke-linejoin="round" />
		<path d="M5.1543 6.23047H14.8465V15.9227C14.8465 16.2083 14.733 16.4822 14.5311 16.6842C14.3291 16.8861 14.0552 16.9996 13.7696 16.9996H6.23121C5.94559 16.9996 5.67168 16.8861 5.46972 16.6842C5.26776 16.4822 5.1543 16.2083 5.1543 15.9227V6.23047Z" stroke="currentColor" stroke-width="1.5" stroke-linecap="round" stroke-linejoin="round" />
		<path d="M7.30859 6.23074V5.69228C7.30859 4.97824 7.59224 4.29345 8.09714 3.78855C8.60204 3.28365 9.28684 3 10.0009 3C10.7149 3 11.3997 3.28365 11.9046 3.78855C12.4095 4.29345 12.6932 4.97824 12.6932 5.69228V6.23074" stroke="currentColor" stroke-width="1.5" stroke-linecap="round" stroke-linejoin="round" />
	</symbol>
	<symbol id="arrow_down" viewBox="0 0 14 8" fill="none" xmlns="http://www.w3.org/2000/svg">
		<path d="M1.375 1.1875L7 6.8125L12.625 1.1875" stroke="currentColor" stroke-width="2" stroke-linecap="round" stroke-linejoin="round" />
	</symbol>
	<symbol id="close" viewBox="0 0 20 20" fill="none" xmlns="http://www.w3.org/2000/svg">
		<path d="M2 2L18 18M2 18L18 2" stroke="currentColor"/>
	</symbol>
	<symbol id="main" viewBox="0 0 22 18" fill="none" xmlns="http://www.w3.org/2000/svg">
		<path d="M14.5927 10.1127C14.4666 11.3183 14.0822 12.3842 13.4398 13.3106C12.8088 14.2243 11.9713 14.9349 10.9274 15.4425C9.89485 15.9501 8.7132 16.2039 7.38242 16.2039C5.91396 16.2039 4.62333 15.893 3.51052 15.2712C2.40918 14.6494 1.54876 13.7865 0.929255 12.6824C0.309752 11.5657 0 10.265 0 8.78028C0 7.29557 0.309752 6.00119 0.929255 4.89717C1.54876 3.78046 2.40918 2.9112 3.51052 2.2894C4.62333 1.66759 5.91396 1.35669 7.38242 1.35669C8.7132 1.35669 9.89485 1.61049 10.9274 2.11808C11.9713 2.62568 12.8088 3.33631 13.4398 4.24999C14.0822 5.16366 14.4666 6.22961 14.5927 7.44784H11.6501C11.5354 6.77528 11.2887 6.19789 10.9101 5.71567C10.5316 5.22077 10.044 4.84007 9.44743 4.57358C8.85087 4.30709 8.15679 4.17385 7.36521 4.17385C6.4589 4.17385 5.67304 4.3642 5.00765 4.74489C4.35373 5.1129 3.84895 5.64588 3.49331 6.34382C3.13767 7.02908 2.95985 7.84123 2.95985 8.78028C2.95985 9.71934 3.13767 10.5378 3.49331 11.2358C3.84895 11.921 4.35373 12.454 5.00765 12.8347C5.67304 13.2027 6.4589 13.3867 7.36521 13.3867C8.15679 13.3867 8.85087 13.2598 9.44743 13.006C10.044 12.7395 10.5316 12.3652 10.9101 11.883C11.2887 11.3881 11.5354 10.798 11.6501 10.1127H14.5927Z" fill="#ED6142"/>
		<path d="M11.8126 3.73083H14.1874V13.629H11.8126V3.73083ZM22 10.8308L9.09369 17.5121V14.0668L20.8126 8.22306V9.28901L9.09369 3.44531V0L22 6.68124V10.8308Z" fill="white"/>
	</symbol>
	<symbol id="events" viewBox="0 0 20 20" fill="none" xmlns="http://www.w3.org/2000/svg">
		<path d="M17.7778 11.6923C17.2593 11.6923 16.7407 11.9115 16.3704 12.2038L13.1852 10.3038C13.2593 10.0115 13.3333 9.79231 13.3333 9.5C13.3333 9.20769 13.2593 8.91539 13.1852 8.69615L16.3704 6.79615C16.7407 7.08846 17.2593 7.30769 17.7778 7.30769C19.037 7.30769 20 6.35769 20 5.11538C20 3.87308 19.037 2.92308 17.7778 2.92308C16.5185 2.92308 15.5556 3.87308 15.5556 5.11538C15.5556 5.26154 15.5556 5.40769 15.6296 5.55385L12.4444 7.45385C11.9259 6.86923 11.1852 6.57692 10.3704 6.57692C9.92593 6.57692 9.55556 6.65 9.18519 6.86923L6.37037 3.36154C6.51852 2.99615 6.66667 2.63077 6.66667 2.19231C6.66667 0.95 5.7037 0 4.44444 0C3.18519 0 2.22222 0.95 2.22222 2.19231C2.22222 3.43462 3.18519 4.38462 4.44444 4.38462C4.66667 4.38462 4.96296 4.31154 5.18518 4.23846L8 7.74615C7.77778 8.03846 7.62963 8.40385 7.48148 8.76923H4.2963C4 7.89231 3.18519 7.30769 2.22222 7.30769C0.962963 7.30769 0 8.25769 0 9.5C0 10.7423 0.962963 11.6923 2.22222 11.6923C3.18519 11.6923 4 11.1077 4.2963 10.2308H7.48148C7.55556 10.5962 7.77778 10.9615 8 11.2538L5.18518 14.7615C4.96296 14.6885 4.66667 14.6154 4.44444 14.6154C3.18519 14.6154 2.22222 15.5654 2.22222 16.8077C2.22222 18.05 3.18519 19 4.44444 19C5.7037 19 6.66667 18.05 6.66667 16.8077C6.66667 16.3692 6.51852 16.0038 6.2963 15.6385L9.11111 12.1308C9.48148 12.2769 9.92593 12.4231 10.2963 12.4231C11.1111 12.4231 11.8519 12.1308 12.3704 11.5462L15.5556 13.4462C15.5556 13.5923 15.4815 13.7385 15.4815 13.8846C15.4815 15.1269 16.4444 16.0769 17.7037 16.0769C18.963 16.0769 19.9259 15.1269 19.9259 13.8846C19.9259 12.6423 19.037 11.6923 17.7778 11.6923ZM17.7778 4.38462C18.2222 4.38462 18.5185 4.67692 18.5185 5.11538C18.5185 5.55385 18.2222 5.84615 17.7778 5.84615C17.3333 5.84615 17.037 5.55385 17.037 5.11538C17.037 4.67692 17.3333 4.38462 17.7778 4.38462ZM3.7037 2.19231C3.7037 1.75385 4 1.46154 4.44444 1.46154C4.88889 1.46154 5.18518 1.75385 5.18518 2.19231C5.18518 2.63077 4.88889 2.92308 4.44444 2.92308C4 2.92308 3.7037 2.63077 3.7037 2.19231ZM2.22222 10.2308C1.77778 10.2308 1.48148 9.93846 1.48148 9.5C1.48148 9.06154 1.77778 8.76923 2.22222 8.76923C2.66667 8.76923 2.96296 9.06154 2.96296 9.5C2.96296 9.93846 2.66667 10.2308 2.22222 10.2308ZM4.44444 17.5385C4 17.5385 3.7037 17.2462 3.7037 16.8077C3.7037 16.3692 4 16.0769 4.44444 16.0769C4.88889 16.0769 5.18518 16.3692 5.18518 16.8077C5.18518 17.2462 4.88889 17.5385 4.44444 17.5385ZM10.3704 10.9615C9.55556 10.9615 8.88889 10.3038 8.88889 9.5C8.88889 8.69615 9.55556 8.03846 10.3704 8.03846C11.1852 8.03846 11.8519 8.69615 11.8519 9.5C11.8519 10.3038 11.1852 10.9615 10.3704 10.9615ZM17.7778 14.6154C17.3333 14.6154 17.037 14.3231 17.037 13.8846C17.037 13.4462 17.3333 13.1538 17.7778 13.1538C18.2222 13.1538 18.5185 13.4462 18.5185 13.8846C18.5185 14.3231 18.2222 14.6154 17.7778 14.6154Z" fill="currentColor"/>
	</symbol>
	<symbol id="teams" viewBox="0 0 20 20" fill="none" xmlns="http://www.w3.org/2000/svg">
		<path d="M10 9.16663C11.1051 9.16663 12.1649 9.60561 12.9463 10.387C13.7277 11.1684 14.1667 12.2282 14.1667 13.3333V18.3333H5.83335V13.3333C5.83335 12.2282 6.27234 11.1684 7.05374 10.387C7.83514 9.60561 8.89495 9.16663 10 9.16663ZM4.40669 11.6716C4.27407 12.1189 4.19573 12.5806 4.17335 13.0466L4.16669 13.3333V18.3333H1.66669V14.5833C1.66652 13.8646 1.93171 13.1712 2.41138 12.636C2.89105 12.1008 3.55144 11.7615 4.26585 11.6833L4.40752 11.6716H4.40669ZM15.5934 11.6716C16.3349 11.7168 17.0314 12.0433 17.5405 12.5843C18.0497 13.1254 18.3332 13.8403 18.3334 14.5833V18.3333H15.8334V13.3333C15.8334 12.7558 15.75 12.1983 15.5934 11.6716ZM4.58335 6.66663C5.13589 6.66663 5.66579 6.88612 6.05649 7.27682C6.44719 7.66752 6.66669 8.19742 6.66669 8.74996C6.66669 9.30249 6.44719 9.8324 6.05649 10.2231C5.66579 10.6138 5.13589 10.8333 4.58335 10.8333C4.03082 10.8333 3.50092 10.6138 3.11021 10.2231C2.71951 9.8324 2.50002 9.30249 2.50002 8.74996C2.50002 8.19742 2.71951 7.66752 3.11021 7.27682C3.50092 6.88612 4.03082 6.66663 4.58335 6.66663ZM15.4167 6.66663C15.9692 6.66663 16.4991 6.88612 16.8898 7.27682C17.2805 7.66752 17.5 8.19742 17.5 8.74996C17.5 9.30249 17.2805 9.8324 16.8898 10.2231C16.4991 10.6138 15.9692 10.8333 15.4167 10.8333C14.8642 10.8333 14.3342 10.6138 13.9435 10.2231C13.5528 9.8324 13.3334 9.30249 13.3334 8.74996C13.3334 8.19742 13.5528 7.66752 13.9435 7.27682C14.3342 6.88612 14.8642 6.66663 15.4167 6.66663ZM10 1.66663C10.8841 1.66663 11.7319 2.01782 12.357 2.64294C12.9822 3.26806 13.3334 4.1159 13.3334 4.99996C13.3334 5.88401 12.9822 6.73186 12.357 7.35698C11.7319 7.9821 10.8841 8.33329 10 8.33329C9.11597 8.33329 8.26812 7.9821 7.643 7.35698C7.01788 6.73186 6.66669 5.88401 6.66669 4.99996C6.66669 4.1159 7.01788 3.26806 7.643 2.64294C8.26812 2.01782 9.11597 1.66663 10 1.66663Z" fill="currentColor"/>
	</symbol>
	<symbol id="search" viewBox="0 0 20 20" fill="none" xmlns="http://www.w3.org/2000/svg">
		<path d="M16.3333 17.5L11.0833 12.25C10.6667 12.5833 10.1875 12.8472 9.64583 13.0417C9.10417 13.2361 8.52778 13.3333 7.91667 13.3333C6.40278 13.3333 5.12167 12.8089 4.07333 11.76C3.025 10.7111 2.50056 9.43 2.5 7.91667C2.5 6.40278 3.02444 5.12167 4.07333 4.07333C5.12222 3.025 6.40333 2.50056 7.91667 2.5C9.43056 2.5 10.7117 3.02444 11.76 4.07333C12.8083 5.12222 13.3328 6.40333 13.3333 7.91667C13.3333 8.52778 13.2361 9.10417 13.0417 9.64583C12.8472 10.1875 12.5833 10.6667 12.25 11.0833L17.5 16.3333L16.3333 17.5ZM7.91667 11.6667C8.95833 11.6667 9.84389 11.3019 10.5733 10.5725C11.3028 9.84306 11.6672 8.95778 11.6667 7.91667C11.6667 6.875 11.3019 5.98944 10.5725 5.26C9.84306 4.53056 8.95778 4.16611 7.91667 4.16667C6.875 4.16667 5.98944 4.53139 5.26 5.26083C4.53056 5.99028 4.16611 6.87556 4.16667 7.91667C4.16667 8.95833 4.53139 9.84389 5.26083 10.5733C5.99028 11.3028 6.87556 11.6672 7.91667 11.6667Z" fill="currentColor"/>
	</symbol>
	<symbol id="dashboard" viewBox="0 0 20 20" fill="none" xmlns="http://www.w3.org/2000/svg">
		<rect x="11" y="11" width="8" height="8" fill="currentColor"/>
		<rect x="1.5" y="11.5" width="7" height="7" stroke="currentColor"/>
		<rect x="1.5" y="1.5" width="7" height="7" stroke="currentColor"/>
		<rect x="11.5" y="1.5" width="7" height="7" stroke="currentColor"/>
	</symbol>
	<symbol id="logout" viewBox="0 0 20 20" fill="none" xmlns="http://www.w3.org/2000/svg">
		<g clip-path="url(#clip0_34_33)">
			<path d="M1 1H19V19H1V9.5H15.5M15.5 9.5L11 7.5M15.5 9.5L11 11.5" stroke="currentColor"/>
		</g>
		<defs>
			<clipPath id="clip0_34_33">
				<rect width="20" height="20" fill="currentColor"/>
			</clipPath>
		</defs>
	</symbol>
	<symbol id="settings" viewBox="0 0 200 200" fill="none" xmlns="http://www.w3.org/2000/svg">
		<path d="M161.917 108.167C162.25 105.5 162.5 102.833 162.5 100C162.5 97.1666 162.25 94.5 161.917 91.8333L179.5 78.0833C181.083 76.8333 181.5 74.5833 180.5 72.75L163.833 43.9166C163.342 43.0569 162.561 42.4001 161.629 42.0642C160.698 41.7282 159.677 41.735 158.75 42.0833L138 50.4166C133.667 47.0833 129 44.3333 123.917 42.25L120.75 20.1667C120.612 19.1862 120.121 18.2897 119.37 17.6453C118.618 17.0009 117.657 16.6529 116.667 16.6666H83.3333C81.25 16.6666 79.5 18.1667 79.25 20.1667L76.0833 42.25C71 44.3333 66.3333 47.1666 62 50.4166L41.25 42.0833C40.7668 41.9194 40.2602 41.835 39.75 41.8333C38.3333 41.8333 36.9167 42.5833 36.1667 43.9166L19.5 72.75C18.4167 74.5833 18.9167 76.8333 20.5 78.0833L38.0833 91.8333C37.75 94.5 37.5 97.25 37.5 100C37.5 102.75 37.75 105.5 38.0833 108.167L20.5 121.917C18.9167 123.167 18.5 125.417 19.5 127.25L36.1667 156.083C36.6579 156.943 37.4393 157.6 38.3708 157.936C39.3023 158.272 40.323 158.265 41.25 157.917L62 149.583C66.3333 152.917 71 155.667 76.0833 157.75L79.25 179.833C79.5 181.833 81.25 183.333 83.3333 183.333H116.667C118.75 183.333 120.5 181.833 120.75 179.833L123.917 157.75C129 155.667 133.667 152.833 138 149.583L158.75 157.917C159.25 158.083 159.75 158.167 160.25 158.167C161.667 158.167 163.083 157.417 163.833 156.083L180.5 127.25C181.5 125.417 181.083 123.167 179.5 121.917L161.917 108.167ZM145.417 93.9167C145.75 96.5 145.833 98.25 145.833 100C145.833 101.75 145.667 103.583 145.417 106.083L144.25 115.5L151.667 121.333L160.667 128.333L154.833 138.417L144.25 134.167L135.583 130.667L128.083 136.333C124.5 139 121.083 141 117.667 142.417L108.833 146L107.5 155.417L105.833 166.667H94.1667L92.5833 155.417L91.25 146L82.4167 142.417C78.8333 140.917 75.5 139 72.1667 136.5L64.5833 130.667L55.75 134.25L45.1667 138.5L39.3333 128.417L48.3333 121.417L55.75 115.583L54.5833 106.167C54.3333 103.583 54.1667 101.667 54.1667 100C54.1667 98.3333 54.3333 96.4167 54.5833 93.9167L55.75 84.5L48.3333 78.6666L39.3333 71.6667L45.1667 61.5833L55.75 65.8333L64.4167 69.3333L71.9167 63.6666C75.5 61 78.9167 59 82.3333 57.5833L91.1667 54L92.5 44.5833L94.1667 33.3333H105.75L107.333 44.5833L108.667 54L117.5 57.5833C121.083 59.0833 124.417 61 127.75 63.5L135.333 69.3333L144.167 65.75L154.75 61.5L160.583 71.5833L151.667 78.6666L144.25 84.5L145.417 93.9167ZM100 66.6666C81.5833 66.6666 66.6667 81.5833 66.6667 100C66.6667 118.417 81.5833 133.333 100 133.333C118.417 133.333 133.333 118.417 133.333 100C133.333 81.5833 118.417 66.6666 100 66.6666ZM100 116.667C90.8333 116.667 83.3333 109.167 83.3333 100C83.3333 90.8333 90.8333 83.3333 100 83.3333C109.167 83.3333 116.667 90.8333 116.667 100C116.667 109.167 109.167 116.667 100 116.667Z" fill="currentColor"/>
	</symbol>
	<symbol id="questions" viewBox="0 0 200 200" fill="none" xmlns="http://www.w3.org/2000/svg">
		<path d="M92.25 107.083C98.6667 95.5 111 88.6667 118.167 78.4167C125.75 67.6667 121.5 47.5833 100 47.5833C85.9167 47.5833 79 58.25 76.0833 67.0833L54.5 58C60.4167 40.25 76.5 25 99.9167 25C119.5 25 132.917 33.9167 139.75 45.0833C145.583 54.6667 149 72.5833 140 85.9167C130 100.667 120.417 105.167 115.25 114.667C113.167 118.5 112.333 121 112.333 133.333H88.25C88.1667 126.833 87.1667 116.25 92.25 107.083ZM116.667 166.667C116.667 175.833 109.167 183.333 100 183.333C90.8333 183.333 83.3333 175.833 83.3333 166.667C83.3333 157.5 90.8333 150 100 150C109.167 150 116.667 157.5 116.667 166.667Z" fill="currentColor"/>
	</symbol>
	<symbol id="chat" viewBox="0 0 200 200" fill="none" xmlns="http://www.w3.org/2000/svg">
		<path d="M16.6667 183.333V16.6667H183.333V150H50.0001L16.6667 183.333Z" fill="currentColor"/>
	</symbol>
	<symbol id="plus" viewBox="0 0 25 26" fill="none" xmlns="http://www.w3.org/2000/svg">
		<path d="M13.3563 0H11.2134C11.023 0 10.9277 0.0952381 10.9277 0.285714V11.5H0.285714C0.0952381 11.5 0 11.5952 0 11.7857V13.9286C0 14.119 0.0952381 14.2143 0.285714 14.2143H10.9277V25.4286C10.9277 25.619 11.023 25.7143 11.2134 25.7143H13.3563C13.5468 25.7143 13.642 25.619 13.642 25.4286V14.2143H24.2857C24.4762 14.2143 24.5714 14.119 24.5714 13.9286V11.7857C24.5714 11.5952 24.4762 11.5 24.2857 11.5H13.642V0.285714C13.642 0.0952381 13.5468 0 13.3563 0Z" fill="currentColor"/>
	</symbol>
</svg>
