<svg width="0" height="0">
	<symbol id="more" viewBox="0 0 24 24" fill="none" xmlns="http://www.w3.org/2000/svg">
		<path d="M11 4C11 4.55228 11.4477 5 12 5C12.5523 5 13 4.55228 13 4C13 3.44772 12.5523 3 12 3C11.4477 3 11 3.44772 11 4Z" fill="currentColor"/>
		<path d="M11 12C11 12.5523 11.4477 13 12 13C12.5523 13 13 12.5523 13 12C13 11.4477 12.5523 11 12 11C11.4477 11 11 11.4477 11 12Z" fill="currentColor"/>
		<path d="M11 20C11 20.5523 11.4477 21 12 21C12.5523 21 13 20.5523 13 20C13 19.4477 12.5523 19 12 19C11.4477 19 11 19.4477 11 20Z" fill="currentColor"/>
		<path fill-rule="evenodd" clip-rule="evenodd" d="M10.25 4C10.25 3.0335 11.0335 2.25 12 2.25C12.9665 2.25 13.75 3.0335 13.75 4C13.75 4.9665 12.9665 5.75 12 5.75C11.0335 5.75 10.25 4.9665 10.25 4ZM12 3.75C11.8619 3.75 11.75 3.86193 11.75 4C11.75 4.13807 11.8619 4.25 12 4.25C12.1381 4.25 12.25 4.13807 12.25 4C12.25 3.86193 12.1381 3.75 12 3.75ZM10.25 12C10.25 11.0335 11.0335 10.25 12 10.25C12.9665 10.25 13.75 11.0335 13.75 12C13.75 12.9665 12.9665 13.75 12 13.75C11.0335 13.75 10.25 12.9665 10.25 12ZM12 11.75C11.8619 11.75 11.75 11.8619 11.75 12C11.75 12.1381 11.8619 12.25 12 12.25C12.1381 12.25 12.25 12.1381 12.25 12C12.25 11.8619 12.1381 11.75 12 11.75ZM10.25 20C10.25 19.0335 11.0335 18.25 12 18.25C12.9665 18.25 13.75 19.0335 13.75 20C13.75 20.9665 12.9665 21.75 12 21.75C11.0335 21.75 10.25 20.9665 10.25 20ZM12 19.75C11.8619 19.75 11.75 19.8619 11.75 20C11.75 20.1381 11.8619 20.25 12 20.25C12.1381 20.25 12.25 20.1381 12.25 20C12.25 19.8619 12.1381 19.75 12 19.75Z" fill="currentColor"/>
	</symbol>
	<symbol id="power" viewBox="0 0 20 20" fill="none" xmlns="http://www.w3.org/2000/svg">
		<path d="M10.0007 17.5007C13.6765 17.5007 16.6673 14.5099 16.6673 10.834C16.6673 8.04237 14.9406 5.64987 12.5007 4.6582V6.5107C13.2597 6.94897 13.8903 7.57909 14.3291 8.33789C14.7679 9.09669 14.9995 9.95751 15.0007 10.834C15.0007 13.5915 12.7582 15.834 10.0007 15.834C7.24315 15.834 5.00065 13.5915 5.00065 10.834C5.00176 9.95749 5.23332 9.09664 5.67211 8.33782C6.1109 7.57901 6.74149 6.9489 7.50065 6.5107V4.6582C5.06065 5.64987 3.33398 8.04237 3.33398 10.834C3.33398 14.5099 6.32482 17.5007 10.0007 17.5007Z" fill="currentColor" />
		<path d="M9.16602 1.66602H10.8327V9.99935H9.16602V1.66602Z" fill="currentColor" />
	</symbol>
	<symbol id="restart" viewBox="0 0 20 20" fill="none" xmlns="http://www.w3.org/2000/svg">
		<path fill-rule="evenodd" clip-rule="evenodd" d="M5.32314 5.3701C5.24793 5.44127 5.12905 5.4418 5.05583 5.36858L3.81425 4.127C3.69711 4.00986 3.49673 4.09106 3.49419 4.25669L3.43366 8.19049C3.43204 8.29629 3.51823 8.38248 3.62403 8.38085L7.55783 8.32033C7.72346 8.31779 7.80466 8.11741 7.68752 8.00027L6.44594 6.75869C6.37272 6.68547 6.37268 6.56628 6.44855 6.4958C8.3701 4.71077 11.3554 4.70758 13.1685 6.52064C13.6948 7.04701 14.0688 7.72576 14.2933 8.36964C14.3205 8.44766 14.3939 8.50073 14.4765 8.49946L15.8065 8.47899C15.9299 8.4771 16.0179 8.35857 15.9813 8.24072C15.6554 7.19014 15.1664 6.19841 14.3286 5.36055C11.8968 2.92877 7.88337 2.94752 5.32314 5.3701ZM12.9304 13.2432C13.0037 13.3164 13.0037 13.4356 12.9278 13.5061C11.0063 15.2911 8.02095 15.2943 6.20789 13.4812C5.68153 12.9549 5.30756 12.2761 5.08309 11.6322C5.05589 11.5542 4.9825 11.5011 4.89988 11.5024L3.56989 11.5229C3.44651 11.5248 3.35852 11.6433 3.39507 11.7611C3.72097 12.8117 4.20994 13.8035 5.0478 14.6413C7.47957 17.0731 11.493 17.0544 14.0532 14.6318C14.1284 14.5606 14.2473 14.5601 14.3205 14.6333L15.5621 15.8749C15.6793 15.992 15.8796 15.9108 15.8822 15.7452L15.9427 11.8114C15.9443 11.7056 15.8581 11.6194 15.7523 11.621L11.8185 11.6815C11.6529 11.6841 11.5717 11.8845 11.6888 12.0016L12.9304 13.2432Z" fill="currentColor" />
	</symbol>
	<symbol id="remove" viewBox="0 0 20 20" fill="none" xmlns="http://www.w3.org/2000/svg">
		<path d="M3.53906 6.23047H16.462" stroke="currentColor" stroke-width="1.5" stroke-linecap="round" stroke-linejoin="round" />
		<path d="M5.1543 6.23047H14.8465V15.9227C14.8465 16.2083 14.733 16.4822 14.5311 16.6842C14.3291 16.8861 14.0552 16.9996 13.7696 16.9996H6.23121C5.94559 16.9996 5.67168 16.8861 5.46972 16.6842C5.26776 16.4822 5.1543 16.2083 5.1543 15.9227V6.23047Z" stroke="currentColor" stroke-width="1.5" stroke-linecap="round" stroke-linejoin="round" />
		<path d="M7.30859 6.23074V5.69228C7.30859 4.97824 7.59224 4.29345 8.09714 3.78855C8.60204 3.28365 9.28684 3 10.0009 3C10.7149 3 11.3997 3.28365 11.9046 3.78855C12.4095 4.29345 12.6932 4.97824 12.6932 5.69228V6.23074" stroke="currentColor" stroke-width="1.5" stroke-linecap="round" stroke-linejoin="round" />
	</symbol>
	<symbol id="arrow_down" viewBox="0 0 14 8" fill="none" xmlns="http://www.w3.org/2000/svg">
		<path d="M1.375 1.1875L7 6.8125L12.625 1.1875" stroke="currentColor" stroke-width="2" stroke-linecap="round" stroke-linejoin="round" />
	</symbol>
	<symbol id="close" viewBox="0 0 20 20" fill="none" xmlns="http://www.w3.org/2000/svg">
		<path d="M2 2L18 18M2 18L18 2" stroke="currentColor"/>
	</symbol>
</svg>
